# xmcd
#
# Track frame offsets:
#	150
#	26906
#	50295
#	72676
#	91976
#	106426
#	132490
#	162250
#	189819
#	203212
#	234771
#	256813
#	274369
#	296050
#
# Disc length: 4226 seconds
#
# Revision: 0
# Processed by: cddbd v1.5.2PL0 Copyright (c) Steve Scherf et al.
# Submitted via: EasyCDDAExtractor 7.5.0.1
#
DISCID=ce10800e
DTITLE=Cantin and Bégin - Original
DYEAR=1900
DGENRE=Blues
TTITLE0=Le Blues des câbles à booster
TTITLE1=À une amie
TTITLE2=Tu diras bonjour
TTITLE3=Reste encore
TTITLE4=Ya des soirs comme ça
TTITLE5=Ha si mon moine
TTITLE6=Comme dans un film qui va vite
TTITLE7=Blues de la machine à laver
TTITLE8=Votez pour John Lennon
TTITLE9=La clé
TTITLE10=Chez-nous
TTITLE11=Mon chien saucisse
TTITLE12=Je prie pour toi
TTITLE13=L'amour L'amour
EXTD=
EXTT0=
EXTT1=
EXTT2=
EXTT3=
EXTT4=
EXTT5=
EXTT6=
EXTT7=
EXTT8=
EXTT9=
EXTT10=
EXTT11=
EXTT12=
EXTT13=
PLAYORDER=
